<svg width="60" height="60" viewBox="0 0 60 60" fill="none" xmlns="http://www.w3.org/2000/svg">
<path fill-rule="evenodd" clip-rule="evenodd" d="M28.246 0.113127C25.199 0.568204 22.7723 1.82384 20.5708 4.08406C19.5843 5.09705 19.3566 5.39997 19.3997 5.64197C19.4548 5.95037 18.9739 6.56296 18.8085 6.395C18.7631 6.34886 18.5555 6.68109 18.3472 7.13324C17.6108 8.73155 17.3786 12.4215 17.8993 14.2502C18.3641 15.8828 18.9611 18.3822 19.0408 19.0296C19.1022 19.5295 19.0637 19.9633 18.9048 20.5597C18.7153 21.2707 18.7049 21.492 18.8336 22.0763C18.9785 22.7344 19.6918 23.9354 20.608 25.0644C20.821 25.3267 20.98 25.6726 20.98 25.8736C20.98 26.2539 20.9265 26.2303 22.322 26.4636C22.7494 26.5351 23.3564 26.7091 23.6707 26.8503C24.2342 27.1035 24.2421 27.1155 24.2436 27.7195L24.2452 28.332L25.3414 28.976L26.4378 29.62L26.5005 30.5611L26.5632 31.5022L26.9642 31.5482L27.3652 31.5942L27.4033 30.9188C27.4533 30.035 27.6752 30.0512 27.7551 30.9444C27.8149 31.6112 27.8351 31.6456 28.1712 31.6513C28.3655 31.6546 28.5524 31.6117 28.5864 31.5557C28.6204 31.4999 28.5743 31.4533 28.484 31.4522C28.353 31.4506 28.3543 31.428 28.4898 31.3409C28.6293 31.251 28.6357 31.0049 28.5254 29.9749C28.4515 29.2838 28.4314 28.6783 28.4808 28.6293C28.5303 28.5803 28.6739 28.6177 28.8002 28.7124C28.9654 28.8364 28.9994 28.9499 28.9217 29.118C28.8136 29.3518 28.8097 29.6089 28.8934 30.9763L28.9382 31.709H29.4207C29.9015 31.709 29.9031 31.7074 29.8642 31.2311C29.8399 30.9323 29.7666 30.7652 29.6685 30.7851C29.4325 30.833 29.4801 30.6434 29.7466 30.4744C29.9439 30.3492 30.0011 30.3697 30.1051 30.603C30.173 30.7558 30.1843 30.9954 30.13 31.1356C29.9403 31.6251 29.9967 31.709 30.5154 31.709H31.0173V31.1356C31.0173 30.8202 30.9663 30.5621 30.9041 30.5621C30.8419 30.5621 30.7313 30.4045 30.6587 30.2117C30.5859 30.019 30.382 29.6892 30.2055 29.4789C29.9379 29.16 29.8649 29.1283 29.7654 29.2877C29.6611 29.4549 29.6187 29.451 29.4266 29.2559C29.2175 29.0434 29.2316 29.0329 29.7252 29.0329C30.0103 29.0329 30.2641 29.0956 30.2893 29.1723C30.3543 29.3704 31.3937 29.5513 31.3937 29.3645C31.3937 29.2852 31.2856 28.9202 31.1535 28.5532C30.9067 27.8675 30.9534 27.6762 31.2498 28.1583C31.6789 28.856 31.8505 29.2369 31.8019 29.3833C31.6976 29.6982 31.9628 29.5328 32.178 29.149C32.2988 28.9333 32.4682 28.7804 32.5544 28.8092C32.7492 28.8745 32.8409 29.4152 32.6571 29.4152C32.4163 29.4152 32.516 29.7339 32.797 29.8629C32.9478 29.9321 33.0981 30.0747 33.1311 30.1798C33.1828 30.3447 33.162 30.3466 32.9793 30.1934C32.7083 29.9662 32.6427 30.0418 32.5588 30.6778C32.483 31.251 32.6571 31.5824 32.9989 31.5156C33.1166 31.4925 33.2552 31.4693 33.307 31.464C33.3589 31.4585 33.4011 31.0539 33.4011 30.5648V29.6754L34.5246 29.0084L35.648 28.3415L35.6851 27.7761C35.7422 26.9067 35.9683 26.792 38.6394 26.2787C38.8432 26.2395 38.9217 26.1352 38.9217 25.9035C38.9217 25.7028 39.2511 25.1432 39.8018 24.4086C40.6937 23.2187 41.18 22.1956 41.18 21.5093C41.18 21.1755 41.1369 21.1318 40.8068 21.1318C40.4533 21.1318 40.4377 21.1097 40.5112 20.7176C40.5538 20.4899 40.6119 20.2764 40.6403 20.2434C40.7341 20.1341 40.9072 20.5321 40.8413 20.706C40.8059 20.8001 40.8459 20.8769 40.9304 20.8769C41.038 20.8769 41.0545 20.7724 40.9852 20.5265C40.8 19.8688 40.9158 18.5211 41.289 16.9912C41.5342 15.9859 41.6172 15.4352 41.5314 15.3813C41.4506 15.3306 41.4774 15.2559 41.6017 15.1852C42.5096 14.6693 42.5131 9.03918 41.6068 7.21276C40.7329 5.45158 38.84 3.24093 38.0731 3.08597C37.7859 3.02786 37.6419 2.91508 37.5907 2.70761C37.5506 2.545 37.3858 2.32428 37.2246 2.21698C36.9572 2.03895 36.9265 2.04125 36.8747 2.24209C36.8334 2.40215 36.8138 2.38278 36.8033 2.17149C36.7831 1.76879 35.2341 1.01436 34.8836 1.23674C34.7409 1.32722 34.6558 1.33321 34.6558 1.25267C34.6558 1.18207 34.7156 1.12421 34.7887 1.12421C34.8617 1.12421 34.8836 1.06189 34.8372 0.985687C34.7909 0.90948 34.6463 0.875454 34.516 0.910117C34.3857 0.944652 34.309 0.923753 34.3456 0.863475C34.4401 0.708385 33.2936 0.380999 31.8955 0.163847C30.6093 -0.0358463 29.3595 -0.053305 28.246 0.113127ZM33.6035 0.846144C33.5686 0.90349 33.6499 1.0308 33.7843 1.12918C34.0666 1.33576 34.111 1.53073 33.8529 1.43006C33.7565 1.39247 33.6401 1.42292 33.5946 1.49786C33.49 1.66989 33.1502 1.67652 33.1502 1.50652C33.1502 1.43643 33.2665 1.37908 33.4085 1.37908C33.5583 1.37908 33.6324 1.32237 33.5848 1.24413C33.5366 1.16512 33.3458 1.14435 33.1234 1.19392C32.6531 1.2988 32.6861 0.988108 33.1595 0.853662C33.5959 0.729794 33.675 0.728519 33.6035 0.846144ZM28.0061 1.18742C28.5236 1.28109 29.2858 1.35564 29.6999 1.35309C30.1139 1.35067 30.7067 1.42037 31.0173 1.50818L31.5819 1.66786L31.1427 1.82384C30.7944 1.94758 30.6566 1.94707 30.4759 1.82104C30.3507 1.73361 30.1485 1.68863 30.0266 1.721C29.7207 1.8023 26.0955 1.14702 25.938 0.981991C25.7979 0.835184 26.3759 0.892658 28.0061 1.18742ZM36.0359 1.88131C36.0359 2.01742 35.9865 2.15963 35.9261 2.19761C35.8658 2.23546 35.8164 2.12421 35.8164 1.95026C35.8164 1.7763 35.8658 1.63396 35.9261 1.63396C35.9865 1.63396 36.0359 1.74521 36.0359 1.88131ZM33.3384 1.94146C33.7524 2.03844 34.5146 2.18754 35.0322 2.2728C35.5497 2.35805 36.0413 2.48345 36.1245 2.55163C36.2078 2.61968 36.3289 2.64211 36.3938 2.60133C36.4586 2.56068 36.6728 2.61267 36.8698 2.71704C37.0668 2.82141 37.2985 2.90705 37.3847 2.90756C37.6468 2.90884 37.56 3.12764 37.2592 3.22373C36.7688 3.38048 36.5603 3.37959 36.6201 3.22118C36.6729 3.08113 36.4019 2.89036 36.0987 2.85429C36.0297 2.84614 35.8482 2.7944 35.6957 2.73934C35.5352 2.68149 35.3095 2.69844 35.1607 2.77923C34.8031 2.97357 33.9716 2.81288 34.1574 2.5854C34.2645 2.4544 34.1398 2.38864 33.5647 2.2728C32.5547 2.06941 32.3974 2.01652 32.3974 1.88029C32.3974 1.72801 32.4381 1.73055 33.3384 1.94146ZM37.3821 2.60299C37.3404 2.6453 37.2321 2.64988 37.1417 2.61305C37.0415 2.5724 37.0713 2.5422 37.2174 2.53608C37.3497 2.5306 37.4237 2.56068 37.3821 2.60299ZM28.1185 2.76993C28.2147 2.83186 28.2589 2.97447 28.2165 3.08661C28.1274 3.32237 28.5 3.37513 28.7147 3.15708C28.8063 3.06405 28.947 3.07017 29.1789 3.1776C29.6484 3.39475 29.5921 3.54271 29.0725 3.45707C28.7925 3.41094 28.6334 3.43579 28.6334 3.52563C28.6334 3.676 27.9694 3.59585 27.6297 3.40444C27.474 3.31663 27.481 3.29777 27.6702 3.29446C27.8204 3.29191 27.8839 3.21392 27.8548 3.06762C27.8178 2.8808 27.6963 2.85136 27.1061 2.88628C26.6941 2.91062 26.3671 2.87086 26.3182 2.7907C26.2149 2.62096 27.8574 2.60209 28.1185 2.76993ZM27.0024 3.24055C27.0024 3.26808 26.847 3.28974 26.6573 3.28872C26.4063 3.28732 26.3605 3.25585 26.4891 3.17301C26.6489 3.0703 27.0024 3.11681 27.0024 3.24055ZM36.1614 3.24055C36.1614 3.26808 36.0061 3.28974 35.8164 3.28872C35.5653 3.28732 35.5195 3.25585 35.6481 3.17301C35.808 3.0703 36.1614 3.11681 36.1614 3.24055ZM32.8102 3.41807C32.7284 3.73552 32.3445 3.78585 31.425 3.59929C30.7044 3.45312 30.9596 3.24986 31.7701 3.32453C32.184 3.36264 32.5544 3.34199 32.593 3.27853C32.7237 3.06367 32.8762 3.16167 32.8102 3.41807ZM30.3899 3.41807C30.3899 3.48816 30.3335 3.54551 30.2645 3.54551C30.1955 3.54551 30.139 3.48816 30.139 3.41807C30.139 3.34798 30.1955 3.29064 30.2645 3.29064C30.3335 3.29064 30.3899 3.34798 30.3899 3.41807ZM35.6595 3.73666C36.0574 3.89226 36.0686 3.90934 35.7787 3.91813C35.6027 3.92349 35.4051 3.87608 35.3396 3.81274C35.2741 3.74941 35.1075 3.67014 34.9695 3.63637L34.7185 3.57507L34.9695 3.56998C35.1075 3.56717 35.418 3.64223 35.6595 3.73666ZM37.9049 3.72073C37.9837 3.8172 38.2696 3.93202 38.5404 3.97599C38.8112 4.01996 39.0712 4.11923 39.1184 4.19671C39.1786 4.2956 39.0784 4.30809 38.7805 4.23877C38.5476 4.1846 38.2441 4.13541 38.1061 4.12968C37.827 4.11783 37.5415 3.8915 37.5415 3.68199C37.5415 3.49122 37.7342 3.51174 37.9049 3.72073ZM30.2645 4.24641C30.2645 4.35155 30.1729 4.43757 30.061 4.43757C29.8942 4.43757 29.8856 4.40303 30.0135 4.24641C30.0995 4.14128 30.1911 4.05526 30.2171 4.05526C30.2431 4.05526 30.2645 4.14128 30.2645 4.24641ZM37.3533 4.31013C37.396 4.38022 37.371 4.43757 37.298 4.43757C37.225 4.43757 37.1651 4.38022 37.1651 4.31013C37.1651 4.24004 37.19 4.18269 37.2205 4.18269C37.2509 4.18269 37.3107 4.24004 37.3533 4.31013ZM36.1274 4.3871C36.0857 4.42941 35.9775 4.434 35.887 4.39717C35.7869 4.35652 35.8166 4.32631 35.9628 4.3202C36.095 4.31472 36.169 4.34479 36.1274 4.3871ZM29.3621 4.57456C29.3374 4.64988 29.2621 4.71219 29.1949 4.71283C29.1276 4.7136 29.002 4.77362 28.9157 4.84626C28.8295 4.91902 28.7589 4.93483 28.7589 4.88143C28.7589 4.76623 29.153 4.44738 29.3025 4.44164C29.3601 4.43935 29.3868 4.49925 29.3621 4.57456ZM37.0936 4.5506C37.1314 4.61266 37.0641 4.74176 36.9442 4.83734C36.7515 4.99077 36.7442 4.98733 36.8817 4.80815C36.9674 4.69652 37.0004 4.56755 36.955 4.52142C36.9096 4.47529 36.9067 4.43757 36.9486 4.43757C36.9906 4.43757 37.0558 4.48841 37.0936 4.5506ZM27.8806 4.81988C27.8806 4.88997 27.7925 4.94731 27.685 4.94731C27.5775 4.94731 27.5243 4.88997 27.5669 4.81988C27.6096 4.74979 27.6976 4.69244 27.7625 4.69244C27.8275 4.69244 27.8806 4.74979 27.8806 4.81988ZM36.4751 5.07475C36.4324 5.14484 36.302 5.2013 36.1854 5.20028C36.0026 5.19849 35.9992 5.18116 36.1614 5.07475C36.4071 4.91342 36.5732 4.91342 36.4751 5.07475ZM38.0802 5.10661C38.3353 5.29993 38.2392 5.85887 37.969 5.75348C37.8728 5.71588 37.8245 5.63509 37.8617 5.57379C37.899 5.5125 37.8685 5.34645 37.7938 5.20486C37.6404 4.91354 37.7677 4.86983 38.0802 5.10661ZM35.9105 5.20219C35.9105 5.27228 35.854 5.32962 35.785 5.32962C35.716 5.32962 35.6595 5.27228 35.6595 5.20219C35.6595 5.1321 35.716 5.07475 35.785 5.07475C35.854 5.07475 35.9105 5.1321 35.9105 5.20219ZM18.9947 5.97802C18.904 6.12559 18.8537 6.271 18.8832 6.30095C18.9702 6.38926 19.251 5.98733 19.2035 5.84243C19.1795 5.76928 19.0855 5.83032 18.9947 5.97802ZM24.9949 6.09424C24.9949 6.16433 24.9384 6.22168 24.8694 6.22168C24.8004 6.22168 24.744 6.16433 24.744 6.09424C24.744 6.02415 24.8004 5.96681 24.8694 5.96681C24.9384 5.96681 24.9949 6.02415 24.9949 6.09424ZM31.9431 6.2046C32.1447 6.43106 32.1401 6.44075 31.8442 6.40787C31.4455 6.36339 31.2447 6.23595 31.3363 6.08545C31.4516 5.89595 31.714 5.94744 31.9431 6.2046ZM33.4011 6.09424C33.4011 6.16433 33.3763 6.22168 33.3458 6.22168C33.3153 6.22168 33.2556 6.16433 33.2129 6.09424C33.1703 6.02415 33.1952 5.96681 33.2683 5.96681C33.3413 5.96681 33.4011 6.02415 33.4011 6.09424ZM34.1539 6.09424C34.1539 6.16433 34.0444 6.22168 33.9104 6.22168C33.7764 6.22168 33.632 6.16433 33.5893 6.09424C33.5453 6.02199 33.6508 5.96681 33.8329 5.96681C34.0094 5.96681 34.1539 6.02415 34.1539 6.09424ZM35.9199 6.12929C35.9043 6.2817 35.7323 6.25214 35.6783 6.08787C35.6507 6.00376 35.6959 5.95789 35.7787 5.98592C35.8615 6.01396 35.925 6.07844 35.9199 6.12929ZM22.9143 6.52205C22.8707 6.63725 22.7809 6.73143 22.7147 6.73143C22.6483 6.73143 22.63 6.84612 22.6738 6.9863C22.7194 7.13247 22.6963 7.24118 22.6194 7.24118C22.5458 7.24118 22.4856 7.18383 22.4856 7.11374C22.4856 7.04365 22.3302 6.98171 22.1405 6.97623C21.9508 6.97075 21.8661 6.93724 21.9523 6.90194C22.0387 6.86651 22.1092 6.77896 22.1092 6.70722C22.1092 6.63547 22.0121 6.61457 21.8934 6.66083C21.7748 6.70709 21.7215 6.70046 21.775 6.64605C21.8285 6.59163 22.0801 6.53365 22.334 6.51721C22.5879 6.50064 22.8165 6.4238 22.8419 6.34644C22.8674 6.26909 22.9118 6.22984 22.9408 6.25915C22.9696 6.28859 22.9577 6.40685 22.9143 6.52205ZM24.1711 6.61699C23.8291 6.75309 23.6148 6.75144 23.6148 6.61291C23.6148 6.47949 24.1162 6.36721 24.2965 6.46012C24.3609 6.49338 24.3044 6.56398 24.1711 6.61699ZM29.2607 6.3992C29.2607 6.42673 29.1732 6.48344 29.066 6.52524C28.9544 6.56869 28.904 6.54728 28.948 6.47515C29.0216 6.35396 29.2607 6.29598 29.2607 6.3992ZM32.3839 6.85147C32.055 7.12954 32.1404 7.19415 32.5456 6.97394C32.7457 6.86524 32.7909 6.87072 32.7488 6.99879C32.7191 7.0894 32.5545 7.20167 32.3832 7.24818C32.1368 7.31509 32.0681 7.28361 32.0543 7.09743C32.0447 6.96795 32.1569 6.77667 32.3037 6.6723C32.6811 6.40379 32.7447 6.54614 32.3839 6.85147ZM23.3298 6.68096C23.2882 6.72327 23.1799 6.72786 23.0894 6.69103C22.9893 6.65038 23.019 6.62018 23.1652 6.61406C23.2975 6.60858 23.3715 6.63865 23.3298 6.68096ZM29.5467 6.86396C29.5099 7.00682 29.4518 7.09539 29.4175 7.0606C29.3496 6.99165 29.4695 6.60399 29.5587 6.60399C29.589 6.60399 29.5836 6.72098 29.5467 6.86396ZM30.0442 6.81605C29.9575 6.8516 29.9148 6.92704 29.9493 6.98388C29.9838 7.04059 29.9277 7.11986 29.8246 7.16013C29.7215 7.20027 29.6371 7.18905 29.6371 7.13528C29.6371 6.98758 29.9203 6.73003 30.07 6.7415C30.1424 6.74698 30.1309 6.78062 30.0442 6.81605ZM26.5005 7.13502C26.5005 7.21671 26.4649 7.24742 26.4213 7.2032C26.3777 7.15898 26.2225 7.1874 26.0763 7.26654C25.8368 7.39614 25.8275 7.38938 25.9826 7.19836C26.1807 6.95444 26.5005 6.91532 26.5005 7.13502ZM29.2607 7.11374C29.2607 7.18383 29.2043 7.24118 29.1353 7.24118C29.0663 7.24118 29.0098 7.18383 29.0098 7.11374C29.0098 7.04365 29.0663 6.9863 29.1353 6.9863C29.2043 6.9863 29.2607 7.04365 29.2607 7.11374ZM33.2719 7.47783C33.2685 7.66197 33.2525 7.66006 33.1387 7.46151C33.0675 7.33739 32.9476 7.27456 32.8722 7.32184C32.7919 7.37231 32.7708 7.34937 32.8212 7.26641C32.9419 7.06799 33.2764 7.22486 33.2719 7.47783ZM37.8603 7.24971C37.9059 7.32439 37.9173 7.41181 37.8857 7.4438C37.7982 7.53275 37.4161 7.35676 37.4161 7.22754C37.4161 7.06799 37.7602 7.08519 37.8603 7.24971ZM25.3688 7.56283C25.2815 7.66962 25.1842 7.73079 25.1526 7.6988C25.0657 7.61036 25.2424 7.36861 25.394 7.36861C25.4773 7.36861 25.4678 7.44176 25.3688 7.56283ZM24.8694 7.87836C24.8694 7.94845 24.7707 8.0049 24.6499 8.00388C24.4622 8.00223 24.4576 7.98388 24.6185 7.87836C24.8552 7.72289 24.8694 7.72289 24.8694 7.87836ZM28.6825 7.93226C28.6448 8.03192 28.5228 8.14916 28.4112 8.19262C28.2446 8.25748 28.2497 8.22511 28.4403 8.01128C28.7136 7.70454 28.7762 7.68415 28.6825 7.93226ZM28.8843 8.19695C28.8843 8.30209 28.8296 8.38811 28.7628 8.38811C28.696 8.38811 28.6738 8.30209 28.7135 8.19695C28.7532 8.09182 28.8079 8.0058 28.835 8.0058C28.8621 8.0058 28.8843 8.09182 28.8843 8.19695ZM33.0247 8.13323C33.0247 8.20332 32.9999 8.26067 32.9694 8.26067C32.9389 8.26067 32.8792 8.20332 32.8365 8.13323C32.7939 8.06314 32.8188 8.0058 32.8919 8.0058C32.9649 8.0058 33.0247 8.06314 33.0247 8.13323ZM38.1689 8.13323C38.1689 8.20332 38.144 8.26067 38.1135 8.26067C38.083 8.26067 38.0233 8.20332 37.9807 8.13323C37.938 8.06314 37.963 8.0058 38.036 8.0058C38.109 8.0058 38.1689 8.06314 38.1689 8.13323ZM23.7794 8.38161C23.6642 8.51822 23.515 8.59545 23.4479 8.55326C23.3799 8.51057 23.4283 8.40047 23.557 8.30489C23.8963 8.05295 24.0203 8.09577 23.7794 8.38161ZM24.6427 8.35867C24.5595 8.38683 24.5201 8.45692 24.5551 8.51452C24.5901 8.57212 24.5058 8.5892 24.3677 8.5525C24.2297 8.5158 24.1166 8.43997 24.1166 8.3839C24.1166 8.2399 24.3965 8.15808 24.6121 8.23913C24.7381 8.28641 24.7475 8.32324 24.6427 8.35867ZM33.8403 8.26067C33.8829 8.33076 33.8297 8.38811 33.7222 8.38811C33.6147 8.38811 33.5266 8.33076 33.5266 8.26067C33.5266 8.19058 33.5797 8.13323 33.6447 8.13323C33.7097 8.13323 33.7976 8.19058 33.8403 8.26067ZM25.3086 8.51554C25.3512 8.58563 25.3262 8.64298 25.2532 8.64298C25.1802 8.64298 25.1204 8.58563 25.1204 8.51554C25.1204 8.44545 25.1452 8.38811 25.1757 8.38811C25.2062 8.38811 25.2659 8.44545 25.3086 8.51554ZM34.5303 8.77042C34.2871 8.93009 34.1539 8.93009 34.1539 8.77042C34.1539 8.70033 34.2809 8.64387 34.4362 8.64489C34.6645 8.64655 34.6825 8.67051 34.5303 8.77042ZM20.729 9.10264C20.729 9.13017 20.6443 9.15273 20.5408 9.15273C20.4373 9.15273 20.3526 9.09717 20.3526 9.02924C20.3526 8.96144 20.4373 8.93889 20.5408 8.97916C20.6443 9.01956 20.729 9.07512 20.729 9.10264ZM22.4856 9.21645C22.4856 9.32158 22.4309 9.4076 22.364 9.4076C22.2972 9.4076 22.275 9.32158 22.3147 9.21645C22.3544 9.11131 22.4092 9.02529 22.4363 9.02529C22.4634 9.02529 22.4856 9.11131 22.4856 9.21645ZM20.1952 9.3737C20.2234 9.45972 20.1411 9.48827 19.9848 9.44685C19.8436 9.40926 19.7609 9.32477 19.801 9.25901C19.8905 9.11169 20.1322 9.18204 20.1952 9.3737ZM35.2434 9.68643C35.2033 9.788 35.1736 9.7578 35.1676 9.60933C35.1622 9.47501 35.1918 9.39983 35.2334 9.44214C35.2751 9.48444 35.2796 9.59442 35.2434 9.68643ZM20.5007 10.0728C20.4235 10.1512 20.1619 10.2219 19.9191 10.2302C19.2244 10.2535 19.6313 10.0188 20.4027 9.95125C20.5783 9.93583 20.6041 9.96781 20.5007 10.0728ZM37.4788 10.682C37.5214 10.7521 37.4682 10.8094 37.3607 10.8094C37.2532 10.8094 37.1651 10.7521 37.1651 10.682C37.1651 10.6119 37.2182 10.5545 37.2832 10.5545C37.3482 10.5545 37.4361 10.6119 37.4788 10.682ZM18.0942 10.8094C18.0942 10.8795 18.0378 10.9368 17.9688 10.9368C17.8998 10.9368 17.8433 10.8795 17.8433 10.8094C17.8433 10.7393 17.8998 10.682 17.9688 10.682C18.0378 10.682 18.0942 10.7393 18.0942 10.8094ZM24.493 10.8094C24.493 10.8795 24.4682 10.9368 24.4377 10.9368C24.4072 10.9368 24.3475 10.8795 24.3048 10.8094C24.2622 10.7393 24.2871 10.682 24.3602 10.682C24.4332 10.682 24.493 10.7393 24.493 10.8094ZM24.744 11.3904C24.744 11.6007 24.5457 11.6362 24.4303 11.4466C24.3279 11.2784 24.478 11.0398 24.6271 11.1335C24.6914 11.1737 24.744 11.2893 24.744 11.3904ZM31.6446 12.0838C31.6446 12.1539 31.5915 12.2112 31.5265 12.2112C31.4615 12.2112 31.3736 12.1539 31.3309 12.0838C31.2883 12.0137 31.3415 11.9563 31.449 11.9563C31.5565 11.9563 31.6446 12.0137 31.6446 12.0838ZM25.4968 13.0661C25.4968 13.1986 25.5635 13.375 25.6452 13.4579C25.8168 13.6323 25.705 13.8075 25.5032 13.6808C25.3247 13.5688 24.9949 12.7592 24.9949 12.4333C24.9949 12.1988 25.0163 12.2046 25.2458 12.5009C25.3838 12.679 25.4968 12.9334 25.4968 13.0661ZM24.3676 12.7847C24.4955 12.9413 24.4869 12.9758 24.3201 12.9758C24.2082 12.9758 24.1166 12.8898 24.1166 12.7847C24.1166 12.6795 24.138 12.5935 24.1641 12.5935C24.19 12.5935 24.2816 12.6795 24.3676 12.7847ZM39.545 13.0714C39.5428 13.1239 39.4682 13.2643 39.3791 13.3834C39.2278 13.5857 39.204 13.5841 39.0145 13.3593C38.7999 13.1048 38.7856 13.1166 39.4549 12.9932C39.5067 12.9836 39.5472 13.0189 39.545 13.0714ZM24.3676 13.6843C24.3676 13.7935 24.3111 13.8475 24.2421 13.8042C24.1731 13.7608 24.1166 13.6715 24.1166 13.6055C24.1166 13.5395 24.1731 13.4856 24.2421 13.4856C24.3111 13.4856 24.3676 13.575 24.3676 13.6843ZM37.0397 13.8647C37.0397 13.9361 36.8661 13.9554 36.6319 13.9101C36.0601 13.7996 36.042 13.7405 36.5796 13.7405C36.8326 13.7405 37.0397 13.7964 37.0397 13.8647ZM36.4412 14.9192C36.3712 15.0069 36.2861 15.1932 36.2522 15.3334C36.2117 15.5007 36.1855 15.4461 36.1759 15.1741C36.1653 14.8709 36.216 14.7599 36.3649 14.7599C36.5121 14.7599 36.5332 14.8042 36.4412 14.9192ZM21.8029 15.5987C22.0257 15.7831 22.0269 15.794 21.8166 15.7262C21.6902 15.6854 21.4784 15.652 21.3461 15.652C21.2137 15.652 21.1054 15.5947 21.1054 15.5246C21.1054 15.3283 21.5309 15.3736 21.8029 15.5987ZM25.9986 15.652C25.9986 15.7221 25.9738 15.7794 25.9433 15.7794C25.9128 15.7794 25.8531 15.7221 25.8104 15.652C25.7678 15.5819 25.7927 15.5246 25.8658 15.5246C25.9388 15.5246 25.9986 15.5819 25.9986 15.652ZM26.7514 15.7945C26.7514 15.8646 26.695 15.8865 26.626 15.8432C26.5569 15.7998 26.5005 15.7071 26.5005 15.637C26.5005 15.5669 26.5569 15.545 26.626 15.5883C26.695 15.6316 26.7514 15.7244 26.7514 15.7945ZM26.2941 16.2108C26.6628 16.3941 27.0578 16.5441 27.1717 16.5441C27.3076 16.5441 27.3787 16.651 27.3787 16.8551C27.3787 17.0263 27.436 17.2021 27.506 17.2461C27.7179 17.3792 28.1315 18.297 28.1315 18.6342C28.1315 18.8081 28.1821 18.9821 28.2438 19.0208C28.4419 19.1452 27.5964 20.644 26.8924 21.4164C25.6206 22.8117 23.4741 23.3278 22.0149 22.5893C21.389 22.2725 20.6036 21.3428 20.6036 20.9188C20.6036 20.8257 20.5578 20.7495 20.5019 20.7495C20.446 20.7495 20.3873 20.3045 20.3713 19.7606C20.3456 18.8767 20.384 18.6875 20.7334 17.9772C21.314 16.7972 22.2292 16.1527 23.7402 15.8601C24.4622 15.7202 25.6294 15.8805 26.2941 16.2108ZM37.1414 16.1231C38.417 16.5241 39.5446 17.999 39.5509 19.2748C39.552 19.4901 39.6033 19.7472 39.665 19.8462C39.7378 19.9629 39.7151 20.0892 39.6003 20.2058C39.3944 20.415 39.3689 20.622 39.549 20.622C39.618 20.622 39.6745 20.536 39.6745 20.4309C39.6745 20.3257 39.7309 20.2397 39.7999 20.2397C39.8689 20.2397 39.9254 20.351 39.9254 20.4871C39.9254 20.6232 39.9827 20.7705 40.0529 20.8145C40.2945 20.9661 40.0197 21.1573 39.664 21.085C39.2835 21.0078 39.0638 21.1754 39.3274 21.3421C39.4147 21.3974 39.608 21.4265 39.7565 21.407C39.9052 21.3876 40.0642 21.4329 40.1098 21.508C40.1649 21.5985 39.9943 21.6366 39.6023 21.6215C39.0876 21.6018 38.9791 21.6446 38.7564 21.955C37.9347 23.1008 35.7204 23.2096 33.903 22.1937C32.8813 21.6227 31.7786 19.9343 31.7728 18.9321C31.7699 18.43 32.1674 17.428 32.4709 17.1721C32.7024 16.9771 32.6973 16.7989 32.4601 16.7989C32.3566 16.7989 32.2719 16.7416 32.2719 16.6715C32.2719 16.5086 32.4368 16.5076 32.5961 16.6695C32.6772 16.7518 32.8796 16.6793 33.1845 16.4589C34.1499 15.7612 35.5988 15.6382 37.1414 16.1231ZM38.7335 16.2892C38.7761 16.3593 38.7511 16.4166 38.6781 16.4166C38.6051 16.4166 38.5453 16.3593 38.5453 16.2892C38.5453 16.2191 38.5701 16.1617 38.6006 16.1617C38.6311 16.1617 38.6908 16.2191 38.7335 16.2892ZM29.9611 16.5441C30.059 16.5441 30.139 16.6014 30.139 16.6715C30.139 16.8633 29.8418 16.8248 29.567 16.5973C29.3442 16.4129 29.3431 16.4021 29.5533 16.4699C29.6797 16.5107 29.8632 16.5441 29.9611 16.5441ZM28.8216 18.3069C28.8216 18.5374 28.5761 18.4954 28.5273 18.2566C28.5003 18.1236 28.5472 18.0654 28.6527 18.1011C28.7457 18.1326 28.8216 18.2252 28.8216 18.3069ZM28.922 18.8814C28.9575 18.9753 28.9362 19.1331 28.8747 19.2318C28.8059 19.3419 28.762 19.3539 28.7608 19.2625C28.7598 19.1806 28.7246 19.023 28.6827 18.9121C28.6408 18.8012 28.663 18.7105 28.732 18.7105C28.801 18.7105 28.8866 18.7873 28.922 18.8814ZM31.2682 19.6587C31.2682 19.6897 31.2117 19.7504 31.1427 19.7937C31.0737 19.837 31.0173 19.8117 31.0173 19.7375C31.0173 19.6633 31.0737 19.6025 31.1427 19.6025C31.2117 19.6025 31.2682 19.6278 31.2682 19.6587ZM28.9522 20.2483C29.0994 20.49 28.8848 20.5497 28.6663 20.3277C28.4707 20.1291 28.4703 20.1123 28.6619 20.1123C28.7761 20.1123 28.9068 20.1735 28.9522 20.2483ZM29.1092 21.7999C29.1326 22.1468 29.1028 22.2952 29.0256 22.214C28.8315 22.01 28.7944 21.2591 28.9784 21.2593C29.0303 21.2595 29.089 21.5028 29.1092 21.7999ZM31.8417 21.5141C31.8417 21.6543 31.7974 21.769 31.7432 21.769C31.689 21.769 31.6446 21.6543 31.6446 21.5141C31.6446 21.3739 31.689 21.2592 31.7432 21.2592C31.7974 21.2592 31.8417 21.3739 31.8417 21.5141ZM32.5542 21.4366C32.867 21.6777 32.8271 21.769 32.4092 21.769C32.1063 21.769 32.0556 21.7258 32.1101 21.5141C32.1865 21.2175 32.2547 21.2057 32.5542 21.4366ZM29.7681 22.3148C29.7192 22.3696 29.5839 22.3774 29.4675 22.3321C29.272 22.2559 29.2629 22.1737 29.3766 21.5141C29.3826 21.479 29.4932 21.6224 29.6223 21.8327C29.7516 22.043 29.8172 22.2599 29.7681 22.3148ZM40.9918 21.6415C41.0345 21.7116 40.9813 21.769 40.8738 21.769C40.7663 21.769 40.6782 21.7116 40.6782 21.6415C40.6782 21.5714 40.7313 21.5141 40.7962 21.5141C40.8612 21.5141 40.9492 21.5714 40.9918 21.6415ZM30.8174 22.132C30.8535 22.1915 30.7167 22.2449 30.5133 22.2508C30.3098 22.2568 30.1108 22.2081 30.071 22.1427C30.0312 22.0774 30.1681 22.0238 30.3751 22.0238C30.5822 22.0238 30.7811 22.0725 30.8174 22.132ZM32.2728 22.215C32.2731 22.2851 32.019 22.3506 31.7081 22.3604C31.3503 22.3719 31.1427 22.3238 31.1427 22.2295C31.1427 22.1373 31.3582 22.0818 31.7075 22.084C32.018 22.0859 32.2724 22.1449 32.2728 22.215ZM32.7508 22.3233C32.7289 22.3339 32.5448 22.4858 32.3417 22.661L31.9724 22.9796L32.279 22.582C32.4476 22.3633 32.6316 22.2114 32.6881 22.2443C32.7444 22.2773 32.7727 22.3129 32.7508 22.3233ZM24.2672 23.4256C24.4604 23.4256 24.6185 23.483 24.6185 23.5531C24.6185 23.6232 24.5197 23.6798 24.3989 23.6787C23.9587 23.6753 23.6148 23.5187 23.6148 23.3215C23.6148 23.1647 23.6483 23.1538 23.7653 23.2727C23.8481 23.3568 24.074 23.4256 24.2672 23.4256ZM30.9296 24.1968C31.1146 24.5569 31.1422 24.8204 31.082 25.6558C31.0416 26.2165 31.0059 26.9047 31.0027 27.185C30.9995 27.4654 30.9687 27.6088 30.9343 27.5036C30.9001 27.3985 30.8475 27.2343 30.8177 27.1388C30.7735 26.9976 30.7276 26.9954 30.5714 27.127C30.2188 27.4242 30.1262 27.0669 30.101 25.3117L30.0763 23.5921L30.3899 23.6747C30.5726 23.7227 30.798 23.9407 30.9296 24.1968ZM25.6222 23.808C25.7694 23.9046 25.7369 23.932 25.4728 23.9335C25.2871 23.9345 25.1003 23.878 25.0576 23.808C24.9586 23.6452 25.3743 23.6452 25.6222 23.808ZM29.809 23.9673C29.9654 24.5601 29.8943 26.809 29.7112 27.0635C29.5375 27.3047 29.5296 27.3047 29.2715 27.0675C28.5023 26.3604 28.683 23.6805 29.4999 23.6805C29.6359 23.6805 29.7649 23.8002 29.809 23.9673ZM39.2981 23.9354C39.2981 24.0055 39.2732 24.0628 39.2427 24.0628C39.2122 24.0628 39.1525 24.0055 39.1099 23.9354C39.0672 23.8653 39.0922 23.808 39.1652 23.808C39.2382 23.808 39.2981 23.8653 39.2981 23.9354ZM0.284417 25.4338C-0.031256 25.6934 -0.0996349 26.3666 0.157697 26.6817C0.250416 26.7951 0.724805 27.0903 1.21174 27.3377C1.6988 27.5851 2.69011 28.2324 3.41468 28.7765C4.13925 29.3204 4.86921 29.8444 5.03696 29.9407C5.20458 30.0372 5.54334 30.2988 5.78976 30.5221C6.66576 31.3161 10.2532 33.989 10.2921 33.8766C10.3138 33.8138 10.4173 33.7958 10.5221 33.8366C10.6525 33.8874 10.668 33.9391 10.5713 33.9997C10.4897 34.0509 12.3043 35.4321 14.8581 37.2626C17.2935 39.0084 19.5402 40.6225 19.8508 40.8494C20.9421 41.6473 20.8767 41.6652 20.8369 40.5807C20.7992 39.5495 20.8649 39.3545 21.1652 39.6076C21.2703 39.6963 21.3564 39.7151 21.3564 39.6497C21.3564 39.5842 21.1728 39.3918 20.9486 39.2222C20.5549 38.9244 14.1357 34.4127 13.6541 34.0954C13.5238 34.0095 13.2684 33.8161 13.0868 33.6656C12.5214 33.1974 8.40021 30.4347 8.26696 30.4347C8.19758 30.4347 8.05129 30.3443 7.942 30.2338C7.83272 30.1233 6.60943 29.2755 5.22353 28.3498C3.68694 27.3233 2.43065 26.3824 2.00368 25.9382C1.23646 25.1399 0.797951 25.0113 0.284417 25.4338ZM57.8549 25.9664C57.3747 26.4481 55.8919 27.5244 53.7732 28.9293C48.0374 32.7324 42.3121 36.7933 42.3912 37.0024C42.4298 37.105 42.3957 37.1888 42.3153 37.1888C42.2348 37.1888 42.2039 37.1315 42.2465 37.0614C42.2892 36.9913 42.2883 36.9339 42.2446 36.9339C42.1219 36.9339 40.138 38.3304 39.921 38.5696C39.8151 38.6863 39.6664 38.7939 39.5906 38.8087C39.3412 38.8573 32.1157 44.003 32.0678 44.166C31.8944 44.7558 31.885 44.7691 31.7722 44.5837C31.6617 44.402 31.6179 44.4229 30.1956 45.3364C29.9094 45.5201 29.7772 45.442 26.8098 43.3376C25.9944 42.7595 25.2101 42.2842 25.0669 42.2818C24.9239 42.2793 24.6655 42.1953 24.493 42.0951L24.1794 41.913L24.493 41.9077L24.8067 41.9023L24.4381 41.6555C24.2354 41.5198 24.0096 41.4433 23.9362 41.4856C23.8629 41.5279 23.8434 41.5171 23.8928 41.4615C24.011 41.3286 23.4964 40.9231 23.0725 40.815C22.8887 40.7683 22.7696 40.6782 22.808 40.6151C22.9212 40.4293 22.4989 40.3324 22.3013 40.4989C22.2016 40.5828 22.0612 40.6146 21.9892 40.5693C21.9172 40.5241 21.8582 40.5412 21.8582 40.6072C21.8582 40.6733 21.9631 40.7551 22.0913 40.7893C22.3418 40.8558 22.5287 41.4795 22.3348 41.6013C22.2703 41.6418 22.2498 41.7604 22.2893 41.865C22.3349 41.9853 22.2695 42.0793 22.111 42.1214C21.7846 42.2082 21.8887 42.3582 22.5878 42.8085C23.2587 43.2405 23.3263 43.2528 23.4028 42.9553C23.4574 42.7429 23.4609 42.7429 23.4747 42.9553C23.4828 43.0779 23.574 43.1783 23.6775 43.1783C23.781 43.1783 23.8657 43.2303 23.8657 43.2938C23.8657 43.3574 23.7387 43.3783 23.5834 43.3402C23.1618 43.237 23.3188 43.363 25.8418 45.1525C27.1012 46.0458 28.1315 46.7897 28.1315 46.8056C28.1315 46.8216 27.37 47.3659 26.4393 48.0152C25.348 48.7765 24.7798 49.2482 24.8396 49.3432C25.4984 50.3911 25.9286 50.9327 26.046 50.862C26.1235 50.8153 27.0128 50.1856 28.0221 49.4628C29.0316 48.7398 29.8995 48.1484 29.9508 48.1484C30.0021 48.1484 30.881 48.7495 31.9039 49.4842C32.9269 50.2188 33.8197 50.8353 33.8879 50.8541C34.0527 50.8995 35.185 49.2688 35.0638 49.1605C35.0119 49.1141 34.2919 48.5999 33.4639 48.0179C32.6358 47.4358 31.9135 46.9205 31.8587 46.8729C31.8038 46.8252 32.9048 45.9692 34.3052 44.9705C35.7057 43.9719 36.9361 43.0569 37.0397 42.9374C37.1432 42.8177 37.3232 42.6829 37.4399 42.6375C37.6526 42.5548 39.9391 40.9329 46.826 35.9794C50.5738 33.2839 55.5555 29.5295 55.8107 29.2082C55.8873 29.1117 55.9891 29.0329 56.0369 29.0329C56.0848 29.0329 56.541 28.7196 57.0507 28.3367C57.5604 27.9537 58.3523 27.4679 58.8102 27.257C59.3303 27.0175 59.6103 26.8203 59.5563 26.7315C59.494 26.6292 59.4316 26.6281 59.3334 26.7279C59.2584 26.8041 59.1096 26.8647 59.0025 26.8626C58.8535 26.8596 58.8645 26.8254 59.0496 26.7163C59.3604 26.5331 59.8655 25.9517 59.8705 25.7711C59.8779 25.5109 59.4176 25.2098 59.0123 25.2098C58.6882 25.2098 58.461 25.3584 57.8549 25.9664ZM59.7491 26.3005C59.7491 26.4097 59.8055 26.4637 59.8745 26.4204C59.9435 26.3771 60 26.2877 60 26.2217C60 26.1557 59.9435 26.1018 59.8745 26.1018C59.8055 26.1018 59.7491 26.1913 59.7491 26.3005ZM32.2719 26.4992C32.2719 26.5693 32.2155 26.5912 32.1465 26.5478C32.0775 26.5045 32.021 26.4117 32.021 26.3417C32.021 26.2716 32.0775 26.2496 32.1465 26.293C32.2155 26.3363 32.2719 26.4291 32.2719 26.4992ZM31.5191 26.754C31.5191 26.8241 31.4627 26.846 31.3937 26.8027C31.3247 26.7594 31.2682 26.6666 31.2682 26.5965C31.2682 26.5264 31.3247 26.5045 31.3937 26.5478C31.4627 26.5912 31.5191 26.684 31.5191 26.754ZM34.5303 26.739C34.4268 26.8069 34.2857 26.8625 34.2167 26.8625C34.1477 26.8625 34.1759 26.8069 34.2794 26.739C34.3829 26.6711 34.5241 26.6155 34.5931 26.6155C34.6621 26.6155 34.6338 26.6711 34.5303 26.739ZM21.266 27.7807C21.3611 29.15 21.5803 30.0524 21.8178 30.0524C21.9172 30.0524 21.9626 30.1112 21.9188 30.1832C21.7555 30.4519 22.3755 31.4415 22.9865 31.8873C23.5209 32.2773 23.6895 32.5267 24.3529 33.9085C25.2339 35.7437 25.9744 36.5699 27.3059 37.2027C28.835 37.9295 31.0727 37.9249 32.6176 37.1917C33.8306 36.6161 35.4755 34.8864 35.1368 34.5425C34.9651 34.368 35.1138 34.1212 35.338 34.2086C35.4515 34.2528 35.538 34.1474 35.5915 33.8997C35.7211 33.3006 36.4683 32.2027 36.995 31.8375C37.3511 31.5906 37.4683 31.4277 37.439 31.2204C37.4159 31.0562 37.4597 30.9532 37.5444 30.9735C37.9779 31.0772 38.6232 29.1744 38.6826 27.6169L38.7136 26.8027L38.1017 26.8477C37.1875 26.9149 36.9142 27.0553 36.9142 27.4574C36.9142 27.6457 36.8222 28.1203 36.7099 28.5119C36.3949 29.61 36.3895 29.6235 36.3266 29.4537C36.2838 29.3378 36.1953 29.3357 35.9599 29.4445C35.7023 29.5636 35.6627 29.6495 35.7272 29.9477C35.8154 30.3554 35.7017 30.4142 35.4632 30.0842C35.3156 29.8803 35.2897 29.8938 35.1593 30.2435C35.081 30.4538 34.9422 30.7786 34.8513 30.9654C34.7342 31.2054 34.7165 31.4674 34.7907 31.8575C34.946 32.6735 34.9054 33.0085 34.7316 32.3462C34.6488 32.0308 34.5465 31.7728 34.5044 31.7728C34.4621 31.7728 34.3 31.9448 34.144 32.1551C33.9879 32.3653 33.7147 32.6995 33.5366 32.8978L33.2129 33.258L33.1502 32.7736C33.0929 32.3307 33.0526 32.2875 32.6797 32.2689C32.2726 32.2486 32.2719 32.2496 32.2719 32.8709C32.2719 33.3391 32.3185 33.4932 32.4601 33.4932C32.5636 33.4932 32.6483 33.583 32.6483 33.6928C32.6483 33.8411 32.5754 33.87 32.366 33.8049C31.9512 33.676 31.6701 33.5018 31.8692 33.497C31.9824 33.4943 32.0201 33.3207 31.9947 32.9198C31.9595 32.3655 31.9447 32.3465 31.5505 32.3463L31.1427 32.3462L31.1409 33.2064C31.1395 33.7791 31.1003 34.0048 31.0237 33.8816C30.9602 33.7798 30.9385 33.647 30.9754 33.5863C31.0123 33.5258 30.938 33.3958 30.8103 33.2975C30.5876 33.1263 30.5874 33.1187 30.8065 33.1149C30.9706 33.112 31.0234 33.0303 30.9947 32.8241C30.9624 32.5936 30.8619 32.5296 30.4828 32.4977L30.0109 32.4581L30.0326 33.0399C30.0445 33.3599 30.0169 33.6597 29.9711 33.7061C29.9255 33.7525 29.8881 33.4942 29.8881 33.1321V32.4737H29.4489C29.1181 32.4737 29.0074 32.5286 29.0002 32.6967C28.9949 32.8193 28.9808 33.163 28.9688 33.4601C28.9569 33.7575 28.8906 33.9954 28.8216 33.989C28.7526 33.9826 28.7122 33.9198 28.7319 33.8493C28.7516 33.7789 28.7206 33.6555 28.6631 33.5753C28.6057 33.4951 28.5648 33.1856 28.5724 32.8878C28.5856 32.3757 28.567 32.3462 28.2334 32.3462C27.9139 32.3462 27.8806 32.3883 27.8806 32.7922C27.8806 33.1037 27.9373 33.2383 28.0688 33.2383C28.2082 33.2383 28.257 33.387 28.257 33.8117C28.257 34.1271 28.2613 34.4268 28.2664 34.4776C28.2716 34.5284 28.2199 34.589 28.1516 34.612C27.9786 34.6707 27.8651 34.2443 27.772 33.187L27.6924 32.2825H27.2533C26.8354 32.2825 26.8111 32.3071 26.7514 32.7901L26.6887 33.2977L26.2256 32.7224C25.5892 31.9319 24.8886 30.7255 24.7397 30.1637C24.6389 29.7836 24.5213 29.6582 24.1073 29.49C23.5439 29.261 23.1982 28.6638 23.0372 27.6415C22.9527 27.104 22.946 27.0975 22.7852 27.3921L22.6199 27.6948L22.6154 27.3518C22.61 26.9353 22.5809 26.9152 21.807 26.7976L21.1913 26.704L21.266 27.7807ZM34.9695 26.8664C35.0121 26.9365 34.9872 26.9939 34.9141 26.9939C34.8411 26.9939 34.7813 26.9365 34.7813 26.8664C34.7813 26.7963 34.8061 26.739 34.8366 26.739C34.8671 26.739 34.9268 26.7963 34.9695 26.8664ZM34.2877 27.1639C34.2039 27.249 34.0685 27.249 33.8808 27.1639C33.6212 27.0463 33.631 27.0363 34.0063 27.0363C34.2778 27.0363 34.3715 27.0788 34.2877 27.1639ZM33.6521 27.3762C33.6521 27.4463 33.5956 27.5036 33.5266 27.5036C33.4576 27.5036 33.4011 27.4463 33.4011 27.3762C33.4011 27.3061 33.4576 27.2487 33.5266 27.2487C33.5956 27.2487 33.6521 27.3061 33.6521 27.3762ZM57.4907 27.5537C57.4907 27.5812 57.4031 27.6379 57.2959 27.6797C57.1843 27.7232 57.134 27.7018 57.1779 27.6297C57.2515 27.5085 57.4907 27.4505 57.4907 27.5537ZM28.7589 28.1483C28.7589 28.2143 28.7024 28.2682 28.6334 28.2682C28.5644 28.2682 28.5079 28.1788 28.5079 28.0696C28.5079 27.9604 28.5644 27.9063 28.6334 27.9497C28.7024 27.993 28.7589 28.0823 28.7589 28.1483ZM21.9837 28.1408C21.9837 28.2109 21.9238 28.2682 21.8508 28.2682C21.7778 28.2682 21.7528 28.2109 21.7955 28.1408C21.8382 28.0707 21.8979 28.0134 21.9284 28.0134C21.9589 28.0134 21.9837 28.0707 21.9837 28.1408ZM29.9331 28.2224C30.1393 28.3419 30.1429 28.3669 29.9645 28.4365C29.7001 28.5394 29.3862 28.4122 29.3862 28.2021C29.3862 28.0146 29.5881 28.022 29.9331 28.2224ZM22.9874 28.3957C22.9874 28.4658 22.931 28.5231 22.862 28.5231C22.793 28.5231 22.7365 28.4658 22.7365 28.3957C22.7365 28.3256 22.793 28.2682 22.862 28.2682C22.931 28.2682 22.9874 28.3256 22.9874 28.3957ZM38.4159 28.8417C38.4159 28.9118 38.3612 28.8831 38.2943 28.778C38.2274 28.6729 38.1727 28.5295 38.1727 28.4594C38.1727 28.3893 38.2274 28.418 38.2943 28.5231C38.3612 28.6283 38.4159 28.7716 38.4159 28.8417ZM30.6409 28.6506C30.6409 28.7206 30.5844 28.778 30.5154 28.778C30.4464 28.778 30.3899 28.7206 30.3899 28.6506C30.3899 28.5805 30.4464 28.5231 30.5154 28.5231C30.5844 28.5231 30.6409 28.5805 30.6409 28.6506ZM22.0126 29.214C22.0916 29.6341 21.907 29.9364 21.7341 29.67C21.6658 29.5649 21.6375 29.4026 21.6714 29.3091C21.7052 29.2159 21.7328 29.0548 21.7328 28.9512C21.7328 28.6616 21.9463 28.8622 22.0126 29.214ZM33.903 29.0329C33.903 29.103 33.8782 29.1603 33.8477 29.1603C33.8172 29.1603 33.7575 29.103 33.7148 29.0329C33.6721 28.9628 33.6971 28.9054 33.7701 28.9054C33.8432 28.9054 33.903 28.9628 33.903 29.0329ZM37.2291 29.0349C37.2725 29.1061 37.3605 29.1315 37.4247 29.0911C37.489 29.0508 37.5415 29.0847 37.5415 29.1664C37.5415 29.2495 37.4541 29.281 37.343 29.2377C37.2339 29.1951 37.0927 29.1603 37.0294 29.1603C36.966 29.1603 36.9142 29.103 36.9142 29.0329C36.9142 28.8669 37.1277 28.8683 37.2291 29.0349ZM22.6738 29.67C22.7164 29.7401 22.66 29.7975 22.5483 29.7975C22.4366 29.7975 22.3802 29.7401 22.4228 29.67C22.4655 29.6 22.5219 29.5426 22.5483 29.5426C22.5746 29.5426 22.6311 29.6 22.6738 29.67ZM23.1756 29.7975C23.2183 29.8676 23.1933 29.9249 23.1203 29.9249C23.0473 29.9249 22.9874 29.8676 22.9874 29.7975C22.9874 29.7274 23.0123 29.67 23.0428 29.67C23.0732 29.67 23.133 29.7274 23.1756 29.7975ZM30.8584 29.7465C30.7621 29.8443 31.0233 30.4347 31.1629 30.4347C31.2208 30.4347 31.2682 30.6927 31.2682 31.0081C31.2682 31.5785 31.2706 31.5816 31.7073 31.5816H32.1465V30.9444C32.1465 30.5857 32.2038 30.3072 32.2778 30.3072C32.35 30.3072 32.3077 30.1695 32.1837 30.0011C32.0304 29.7929 31.9116 29.7338 31.8126 29.8161C31.7194 29.8937 31.6377 29.8892 31.5856 29.8037C31.4986 29.6605 30.983 29.62 30.8584 29.7465ZM5.924 30.1798C5.924 30.2499 5.89916 30.3072 5.86867 30.3072C5.83818 30.3072 5.77846 30.2499 5.7358 30.1798C5.69315 30.1097 5.71811 30.0524 5.79114 30.0524C5.86416 30.0524 5.924 30.1097 5.924 30.1798ZM24.5558 30.1798C24.5984 30.2499 24.517 30.3072 24.375 30.3072C24.2329 30.3072 24.1166 30.2499 24.1166 30.1798C24.1166 30.1097 24.1979 30.0524 24.2974 30.0524C24.3969 30.0524 24.5131 30.1097 24.5558 30.1798ZM7.60149 30.3111C7.5158 30.3981 7.36963 30.4008 7.16863 30.3192C6.88332 30.2034 6.8911 30.1955 7.29786 30.1878C7.59496 30.1823 7.69019 30.221 7.60149 30.3111ZM35.8938 30.7773C35.9885 30.9624 35.9939 31.0832 35.9097 31.1361C35.7719 31.2225 35.5252 30.6917 35.6241 30.5217C35.695 30.4 35.706 30.4105 35.8938 30.7773ZM53.0994 30.832C53.0994 30.9021 53.0429 30.924 52.9739 30.8807C52.9049 30.8374 52.8484 30.7446 52.8484 30.6745C52.8484 30.6044 52.9049 30.5825 52.9739 30.6258C53.0429 30.6692 53.0994 30.7619 53.0994 30.832ZM22.5483 30.817C22.591 30.8871 22.566 30.9444 22.493 30.9444C22.4199 30.9444 22.3601 30.8871 22.3601 30.817C22.3601 30.7469 22.3849 30.6895 22.4154 30.6895C22.4459 30.6895 22.5056 30.7469 22.5483 30.817ZM23.8657 31.1993C23.8657 31.2694 23.8092 31.3267 23.7402 31.3267C23.6712 31.3267 23.6148 31.2694 23.6148 31.1993C23.6148 31.1292 23.6712 31.0719 23.7402 31.0719C23.8092 31.0719 23.8657 31.1292 23.8657 31.1993ZM52.723 31.1993C52.6194 31.2672 52.4326 31.3237 52.3078 31.3248C52.1829 31.3258 52.1133 31.3801 52.153 31.4454C52.1927 31.5106 52.1819 31.5899 52.129 31.6215C51.9929 31.703 51.4151 31.4658 51.5114 31.3679C51.5892 31.2889 52.3487 31.1138 52.723 31.0884C52.8902 31.0772 52.8902 31.0894 52.723 31.1993ZM36.5378 31.5254C36.5378 31.6346 36.4813 31.6886 36.4123 31.6453C36.3433 31.602 36.2869 31.5127 36.2869 31.4466C36.2869 31.3806 36.3433 31.3267 36.4123 31.3267C36.4813 31.3267 36.5378 31.4162 36.5378 31.5254ZM36.0978 31.5802C36.1417 31.6523 36.0914 31.6737 35.9797 31.6303C35.7624 31.5455 35.7226 31.4542 35.9031 31.4542C35.9681 31.4542 36.0556 31.5109 36.0978 31.5802ZM51.7192 31.7652C51.7192 31.8997 51.4785 31.9563 51.4068 31.8385C51.3635 31.7673 51.4161 31.709 51.5236 31.709C51.6311 31.709 51.7192 31.7343 51.7192 31.7652ZM36.4098 32.0307C36.3225 32.1375 36.2253 32.1986 36.1936 32.1667C36.1067 32.0782 36.2835 31.8365 36.435 31.8365C36.5183 31.8365 36.5088 31.9096 36.4098 32.0307ZM34.5303 32.9913C34.5303 33.0571 34.4174 33.1108 34.2794 33.1108C34.1414 33.1108 34.0285 33.0657 34.0285 33.0105C34.0285 32.9554 34.1414 32.9016 34.2794 32.891C34.4174 32.8804 34.5303 32.9255 34.5303 32.9913ZM33.1502 33.8755C33.1502 33.9456 33.1254 34.0029 33.0949 34.0029C33.0644 34.0029 33.0047 33.9456 32.962 33.8755C32.9193 33.8054 32.9443 33.748 33.0173 33.748C33.0904 33.748 33.1502 33.8054 33.1502 33.8755ZM28.8843 34.5839C28.8843 34.6931 28.827 34.7465 28.7569 34.7025C28.6867 34.6584 28.6618 34.5691 28.7015 34.5039C28.8091 34.3271 28.8843 34.36 28.8843 34.5839ZM31.8328 34.6401C31.8755 34.7102 31.8505 34.7675 31.7775 34.7675C31.7045 34.7675 31.6446 34.7102 31.6446 34.6401C31.6446 34.57 31.6694 34.5126 31.6999 34.5126C31.7304 34.5126 31.7901 34.57 31.8328 34.6401ZM27.0024 34.6963C27.0024 34.8307 26.7616 34.8873 26.6899 34.7696C26.6467 34.6983 26.6992 34.6401 26.8067 34.6401C26.9143 34.6401 27.0024 34.6653 27.0024 34.6963ZM28.8843 35.5321C28.8843 35.8826 28.8314 36.1693 28.7668 36.1693C28.6503 36.1693 28.6088 35.1751 28.7175 34.9905C28.8406 34.7813 28.8843 34.9231 28.8843 35.5321ZM33.7435 34.9719C33.7019 35.0142 33.5936 35.0188 33.5031 34.982C33.403 34.9413 33.4328 34.9111 33.5789 34.905C33.7112 34.8995 33.7852 34.9296 33.7435 34.9719ZM28.3249 35.1584C28.4579 35.3769 28.3388 35.3983 28.076 35.2031C27.8725 35.052 27.8662 35.0224 28.0374 35.0224C28.1501 35.0224 28.2795 35.0836 28.3249 35.1584ZM33.0247 35.4684C33.0247 35.5736 32.9683 35.6596 32.8993 35.6596C32.8303 35.6596 32.7738 35.5736 32.7738 35.4684C32.7738 35.3633 32.8303 35.2773 32.8993 35.2773C32.9683 35.2773 33.0247 35.3633 33.0247 35.4684ZM33.903 35.6034C33.903 35.7126 33.8518 35.7699 33.7892 35.7307C33.7267 35.6913 33.7028 35.7883 33.736 35.9462L33.7966 36.233L33.5368 35.9331C33.3939 35.768 33.3083 35.5817 33.3464 35.5189C33.4644 35.3251 33.903 35.3917 33.903 35.6034ZM32.0837 35.9144C32.0411 35.9845 31.9497 36.0419 31.8807 36.0419C31.8117 36.0419 31.7901 35.9845 31.8328 35.9144C31.8755 35.8444 31.9668 35.787 32.0358 35.787C32.1048 35.787 32.1264 35.8444 32.0837 35.9144ZM32.6483 36.0419C32.6483 36.112 32.5885 36.1693 32.5155 36.1693C32.4424 36.1693 32.4175 36.112 32.4601 36.0419C32.5028 35.9718 32.5625 35.9144 32.593 35.9144C32.6235 35.9144 32.6483 35.9718 32.6483 36.0419ZM32.9907 36.756C32.9491 36.7984 32.8408 36.8029 32.7503 36.7661C32.6502 36.7255 32.68 36.6953 32.8261 36.6891C32.9584 36.6837 33.0324 36.7137 32.9907 36.756ZM16.7681 37.1743C16.8462 37.3029 16.3496 37.4662 16.1884 37.3651C16.1303 37.3285 16.1151 37.2453 16.1549 37.18C16.2466 37.0293 16.6773 37.0252 16.7681 37.1743ZM15.9613 37.245C15.9613 37.276 15.9049 37.3366 15.8358 37.38C15.7668 37.4233 15.7104 37.3979 15.7104 37.3238C15.7104 37.2496 15.7668 37.1888 15.8358 37.1888C15.9049 37.1888 15.9613 37.2141 15.9613 37.245ZM21.2002 40.088C21.0961 40.3059 21.0999 41.5401 21.2043 41.4746C21.2665 41.4356 21.3275 41.0861 21.3401 40.698C21.361 40.0481 21.315 39.8473 21.2002 40.088ZM24.8694 42.5372C24.8694 42.605 24.7847 42.6276 24.6812 42.5873C24.5777 42.5469 24.493 42.4913 24.493 42.4638C24.493 42.4363 24.5777 42.4137 24.6812 42.4137C24.7847 42.4137 24.8694 42.4693 24.8694 42.5372ZM34.2794 42.9736C34.2794 43.0011 34.1918 43.0578 34.0847 43.0996C33.973 43.143 33.9227 43.1216 33.9666 43.0495C34.0403 42.9283 34.2794 42.8703 34.2794 42.9736ZM25.5851 43.4804C25.7792 43.6775 25.4663 43.6982 24.9714 43.5208L24.4303 43.3269L24.9682 43.3635C25.264 43.3836 25.5417 43.4363 25.5851 43.4804ZM31.6446 44.9625C31.6446 45.0326 31.5283 45.0899 31.3863 45.0899C31.2442 45.0899 31.1628 45.0326 31.2055 44.9625C31.2481 44.8924 31.3643 44.835 31.4638 44.835C31.5633 44.835 31.6446 44.8924 31.6446 44.9625ZM26.1241 48.6581C26.1241 48.7282 26.0642 48.7856 25.9912 48.7856C25.9182 48.7856 25.8932 48.7282 25.9359 48.6581C25.9785 48.588 26.0383 48.5307 26.0688 48.5307C26.0992 48.5307 26.1241 48.588 26.1241 48.6581ZM32.2379 48.99C32.1963 49.0323 32.088 49.0369 31.9975 49C31.8974 48.9594 31.9272 48.9292 32.0733 48.9231C32.2056 48.9176 32.2796 48.9477 32.2379 48.99ZM24.1851 49.6263C23.9452 49.8699 23.9219 49.7982 24.5422 50.729C25.037 51.4717 25.2057 51.579 25.465 51.3156C25.5733 51.2056 25.5118 51.024 25.2173 50.5828C24.432 49.4066 24.416 49.3918 24.1851 49.6263ZM35.3156 49.7095C34.6537 50.5624 34.3124 51.1894 34.4397 51.3188C34.5172 51.3974 34.6427 51.4617 34.7189 51.4617C34.933 51.4617 35.9397 49.9389 35.8619 49.7328C35.7768 49.5077 35.482 49.4951 35.3156 49.7095ZM23.3125 50.2267C23.103 50.3825 23.1274 50.4513 23.6747 51.2462C23.9974 51.7152 24.3067 52.0989 24.3619 52.0989C24.4171 52.0989 24.5315 52.0142 24.6161 51.9106C24.7425 51.756 24.6655 51.5736 24.186 50.8911C23.8648 50.434 23.5875 50.0599 23.5697 50.0599C23.5519 50.0599 23.4361 50.135 23.3125 50.2267ZM36.0452 50.429C35.8205 50.7496 35.8122 50.8079 35.982 50.874C36.2502 50.9786 36.0696 51.2349 35.791 51.1451C35.6391 51.0961 35.4973 51.1811 35.35 51.4095C35.1568 51.709 35.1536 51.7672 35.3214 51.9376C35.4252 52.0428 35.5622 52.0962 35.626 52.0562C35.7461 51.9809 36.7887 50.4769 36.7887 50.379C36.7887 50.3486 36.6796 50.2645 36.5462 50.192C36.3455 50.0829 36.2594 50.1235 36.0452 50.429ZM22.392 50.8432C22.2652 50.9719 22.6021 51.5715 23.4493 52.7248C23.4705 52.7534 23.5961 52.6774 23.7286 52.5557C23.9641 52.3393 23.9569 52.3162 23.406 51.5158C22.8401 50.6935 22.6581 50.5729 22.392 50.8432ZM36.9769 50.8246C36.9343 50.8946 36.9397 51.0183 36.9888 51.0992C37.0397 51.1826 37.0237 51.212 36.952 51.1668C36.8269 51.0883 36.0359 52.0901 36.0359 52.3272C36.0359 52.3947 36.1169 52.5182 36.2157 52.6017C36.3635 52.7262 36.5069 52.5983 37.0205 51.8844C37.477 51.2497 37.6103 50.9728 37.5153 50.8564C37.3591 50.6649 37.0839 50.6487 36.9769 50.8246ZM20.0622 52.5096C19.0505 53.2299 17.5728 54.2731 16.7783 54.8277C15.984 55.3823 15.334 55.8842 15.334 55.9428C15.334 56.0014 15.2352 56.0504 15.1144 56.0514C14.9463 56.0529 14.934 56.0786 15.0622 56.1611C15.197 56.2479 15.1908 56.2839 15.0309 56.3463C14.9168 56.3907 14.8312 56.3576 14.8302 56.2685C14.829 56.1715 14.7936 56.1611 14.7361 56.2406C14.6854 56.3107 14.1075 56.734 13.452 57.1814C12.054 58.1352 11.9464 58.2527 11.9464 58.8235C11.9464 59.3246 12.5171 60 12.9405 60C13.2701 60 13.2753 59.8923 12.9518 59.7706C12.7056 59.6782 12.7057 59.6749 12.9648 59.5105C13.1092 59.4189 13.1896 59.406 13.1435 59.4818C13.0973 59.5577 13.1378 59.6991 13.2334 59.7962C13.3816 59.9467 13.4618 59.923 13.7763 59.6359C14.022 59.4116 14.137 59.1926 14.1206 58.9805C14.1054 58.7859 14.121 58.7512 14.1607 58.8917C14.2098 59.065 14.2663 59.0874 14.3902 58.9828C14.4807 58.9066 14.609 58.8605 14.6754 58.8805C14.89 58.9451 15.9997 58.0639 15.8346 57.9602C15.7443 57.9035 15.8123 57.8654 16.0038 57.8654C16.385 57.8654 19.9335 55.3517 19.7313 55.2249C19.6591 55.1794 19.599 55.1888 19.598 55.2455C19.5968 55.3022 19.5412 55.2625 19.4744 55.1574C19.4075 55.0523 19.3519 55.0256 19.3508 55.0983C19.3498 55.1708 19.2326 55.2302 19.0903 55.2302C18.9081 55.2302 18.8484 55.1658 18.8879 55.0123C18.929 54.8531 18.8886 54.8152 18.7388 54.8722C18.5598 54.9401 18.5557 54.9223 18.7068 54.7338C18.8543 54.5495 18.901 54.5442 19.0204 54.6975C19.1714 54.8913 20.1017 55.0458 20.1017 54.8769C20.1017 54.821 20.222 54.7751 20.3692 54.7751C20.6061 54.7751 23.1129 53.0765 23.1129 52.916C23.1129 52.8584 22.1917 51.535 21.9873 51.299C21.9402 51.2446 21.0739 51.7894 20.0622 52.5096ZM37.3807 52.056C37.0607 52.5228 36.8257 52.9488 36.8585 53.0026C36.8912 53.0564 37.8346 53.7542 38.9549 54.5532C40.0752 55.3523 42.2471 56.9046 43.7813 58.0029C45.5389 59.2612 46.684 60 46.877 60C47.0453 60 47.3569 59.8515 47.5692 59.6701C47.8729 59.4106 47.9552 59.2391 47.9552 58.8661C47.9552 58.6053 47.8847 58.3025 47.7984 58.1932C47.5299 57.8528 46.1446 56.9772 45.9709 57.038C45.88 57.0698 45.7779 56.9894 45.7439 56.8593C45.7099 56.7293 45.1349 56.2401 44.4661 55.7723C43.7974 55.3045 42.179 54.1648 40.8698 53.2397C39.5605 52.3147 38.3709 51.4789 38.2259 51.3825C37.9783 51.2177 37.9275 51.2583 37.3807 52.056ZM20.2272 53.1746C20.2272 53.2056 20.1707 53.2662 20.1017 53.3096C20.0327 53.3529 19.9762 53.3275 19.9762 53.2534C19.9762 53.1792 20.0327 53.1184 20.1017 53.1184C20.1707 53.1184 20.2272 53.1436 20.2272 53.1746ZM20.9939 53.3009C21.089 53.2411 21.1113 53.2605 21.0546 53.3535C21.0054 53.4345 20.8839 53.5007 20.7844 53.5007C20.6849 53.5007 20.6027 53.5725 20.6017 53.66C20.6003 53.7728 20.5671 53.7668 20.4878 53.6398C20.3201 53.3707 20.4638 53.0751 20.6755 53.2536C20.7679 53.3315 20.9112 53.3528 20.9939 53.3009ZM40.4272 53.3021C40.4272 53.333 40.3708 53.3937 40.3018 53.437C40.2328 53.4803 40.1763 53.455 40.1763 53.3808C40.1763 53.3066 40.2328 53.2459 40.3018 53.2459C40.3708 53.2459 40.4272 53.2711 40.4272 53.3021ZM17.9075 55.3895C17.8079 55.4908 17.5921 55.2609 17.6688 55.135C17.7209 55.0493 17.7855 55.0625 17.8522 55.1719C17.9088 55.2651 17.9338 55.363 17.9075 55.3895ZM41.8074 55.1574C41.8074 55.2275 41.7475 55.2848 41.6745 55.2848C41.6015 55.2848 41.5765 55.2275 41.6192 55.1574C41.6618 55.0873 41.7216 55.03 41.752 55.03C41.7825 55.03 41.8074 55.0873 41.8074 55.1574ZM17.216 55.3486C17.13 55.4537 16.9962 55.5379 16.9184 55.5356C16.8405 55.5335 16.8865 55.4474 17.0204 55.3445C17.3333 55.1041 17.4143 55.1058 17.216 55.3486ZM16.8396 56.8703C16.8396 56.9012 16.7831 56.9619 16.7141 57.0052C16.6451 57.0486 16.5886 57.0232 16.5886 56.949C16.5886 56.8749 16.6451 56.8141 16.7141 56.8141C16.7831 56.8141 16.8396 56.8393 16.8396 56.8703ZM15.083 58.1852C15.083 58.2384 14.9667 58.3558 14.8246 58.4459C14.586 58.5973 14.5767 58.5899 14.7036 58.3492C14.8369 58.0961 15.083 57.9897 15.083 58.1852ZM12.7634 58.9577C12.6638 59.059 12.448 58.8291 12.5247 58.7032C12.5767 58.6176 12.6413 58.6307 12.7081 58.7402C12.7647 58.8333 12.7896 58.9312 12.7634 58.9577Z" fill="#DBD4C1"/>
</svg>
